<?xml version="1.0" encoding="utf-8"?>
<!-- Generator: Adobe Illustrator 22.0.1, SVG Export Plug-In . SVG Version: 6.00 Build 0)  -->
<svg version="1.1" id="Layer_1" xmlns="http://www.w3.org/2000/svg" xmlns:xlink="http://www.w3.org/1999/xlink" x="0px" y="0px"
	 viewBox="0 0 100 100" style="enable-background:new 0 0 100 100;" xml:space="preserve">
<style type="text/css">
	.st0{fill:#FFFFFF;}
	.st1{stroke:#000000;stroke-width:0.5;stroke-miterlimit:10;}
	.st2{fill:none;}
	.st3{enable-background:new    ;}
	.st4{fill:none;stroke:#FFFFFF;stroke-width:1.4;stroke-miterlimit:10;}
	.st5{fill:none;stroke:#FAFCFC;stroke-width:1.4;stroke-linecap:round;stroke-miterlimit:10;}
	.st6{fill:none;stroke:#FFFFFF;stroke-width:1.07;stroke-linecap:round;stroke-miterlimit:10;}
</style>
<g id="Layer_1_1_">
	<path class="st0" d="M77.1,37.7h-8.8c-0.1,0-0.1,0-0.1-0.1v-1.1c0-0.1,0-0.1,0.1-0.1h8.8c0.1,0,0.1,0,0.1,0.1L77.1,37.7
		C77.2,37.7,77.1,37.7,77.1,37.7z"/>
	<path class="st0" d="M73.9,38.4h-4.6c-0.1,0-0.1-0.1-0.1-0.1V36c0-0.1,0.1-0.1,0.1-0.1h4.6C74,35.9,74,36,74,36L73.9,38.4
		C74,38.3,74,38.4,73.9,38.4z"/>
	<circle class="st0" cx="77.4" cy="37.1" r="0.4"/>
	<rect x="75.7" y="36.2" class="st1" width="0" height="2.1"/>
</g>
<g id="Layer_2_1_">
	<rect x="34.6" y="30.9" class="st2" width="25.9" height="20.4"/>
	<g class="st3">
		<path class="st0" d="M38,38.8c0,0.3,0.1,0.6,0.1,0.9c0,0.3,0,0.6,0.1,0.9c0.1,1.2,0.2,2.3,0.3,3.5c0.1,1.2,0.2,2.3,0.3,3.5
			c0,0.2,0,0.3,0,0.5s0,0.3-0.1,0.5c-0.1,0.4-0.3,0.6-0.7,0.7c-0.4,0.1-0.7-0.1-0.9-0.4c-0.1-0.1-0.1-0.2-0.2-0.4
			c-0.1-0.1-0.1-0.2-0.2-0.4c-0.2-0.6-0.3-1.1-0.5-1.7c-0.1-0.6-0.2-1.1-0.3-1.7c-0.2-1-0.3-2-0.5-3.1c-0.2-1-0.3-2-0.3-3
			C35,37.8,35,37.1,35,36.3c0-0.7,0-1.5,0-2.2c0-0.3,0-0.6,0.1-0.9c0-0.3,0.1-0.6,0.1-0.8c0-0.1,0-0.2,0-0.3c0-0.1,0.1-0.2,0.1-0.2
			c0.1-0.2,0.2-0.3,0.3-0.4s0.3-0.2,0.5-0.2s0.3,0,0.5,0.1c0.2,0.1,0.3,0.2,0.4,0.3c0.1,0.2,0.2,0.3,0.3,0.5
			c0.1,0.2,0.1,0.4,0.1,0.6c0,0.2,0.1,0.4,0.1,0.6c0,0.2,0.1,0.4,0.1,0.7c0.1-0.1,0.1-0.1,0.2-0.2s0.1-0.1,0.1-0.2
			c0.2-0.3,0.4-0.6,0.7-0.9c0.2-0.3,0.5-0.5,0.8-0.8c0.4-0.3,0.8-0.6,1.2-0.8c0.4-0.2,0.9-0.4,1.4-0.4c0.5-0.1,1,0,1.4,0.2
			c0.4,0.2,0.8,0.5,1.1,0.9c0.4,0.5,0.6,1.1,0.8,1.7s0.2,1.3,0.1,1.9c-0.1,0.6-0.3,1.2-0.6,1.8s-0.7,1.1-1.3,1.4
			c-0.5,0.4-1,0.6-1.5,0.7c-0.5,0.1-1.1,0.1-1.7,0c-0.4,0-0.7-0.1-1.1-0.2C38.7,39.1,38.4,38.9,38,38.8C38.1,38.7,38.1,38.7,38,38.8
			C38,38.7,38,38.7,38,38.8z M38.1,36.5c0.2,0,0.3,0.1,0.4,0.1c0.1,0,0.2,0.1,0.2,0.1c0.1,0,0.1,0.1,0.2,0.2c0,0.1,0.1,0.2,0.1,0.3
			c0.1,0.1,0.1,0.2,0.2,0.2s0.1,0.1,0.2,0.1c0.2,0,0.3,0.1,0.5,0.1c0.2,0,0.4,0,0.5,0.1c0.8,0,1.5-0.3,2.1-0.9
			c0.2-0.3,0.4-0.6,0.6-0.9c0.1-0.3,0.2-0.7,0.2-1c0-0.3,0-0.7-0.1-1c-0.1-0.3-0.2-0.7-0.5-0.9c-0.3-0.4-0.7-0.5-1.1-0.4
			c-0.2,0-0.4,0.1-0.6,0.2c-0.2,0.1-0.4,0.2-0.5,0.3c-0.7,0.4-1.2,0.9-1.6,1.5C38.6,35.1,38.3,35.8,38.1,36.5z"/>
	</g>
	<g class="st3">
		<path class="st0" d="M53.8,46.1c0.1-0.1,0.1-0.2,0.2-0.2s0.1-0.1,0.1-0.2c0.2-0.4,0.4-0.8,0.6-1.2c0.2-0.4,0.3-0.9,0.5-1.3
			c0-0.1,0-0.1,0-0.2s0-0.1,0-0.2c-0.3-0.5-0.5-1-0.6-1.5c-0.1-0.5-0.2-1-0.3-1.6c-0.2-1-0.3-2-0.2-3.1c0.1-1,0.2-2,0.5-3.1
			c0.1-0.2,0.1-0.4,0.2-0.6c0.1-0.2,0.2-0.4,0.3-0.6c0.1-0.1,0.2-0.2,0.3-0.3c0.1-0.1,0.2-0.2,0.3-0.3c0.3-0.2,0.5-0.3,0.8-0.2
			c0.3,0.1,0.5,0.2,0.8,0.5c0.2,0.3,0.4,0.6,0.5,0.9c0.1,0.3,0.2,0.7,0.2,1c0.1,0.6,0.1,1.2,0.1,1.8c0,0.6-0.1,1.2-0.2,1.8
			c-0.1,0.7-0.2,1.3-0.4,2c-0.1,0.7-0.3,1.3-0.4,2c0,0.2,0,0.4,0.1,0.5c0.1,0.1,0.3,0.1,0.5,0.1c0.1,0,0.2-0.1,0.3-0.1
			c0.1,0,0.2-0.1,0.2-0.2c0.3-0.3,0.6-0.6,0.9-1c0.3-0.4,0.5-0.7,0.6-1.2c0,0,0-0.1,0-0.1c0.1-0.3,0.3-0.4,0.6-0.4
			c0.1,0,0.2,0.1,0.3,0.2c0.1,0.1,0.1,0.3,0.1,0.4c0,0.2-0.1,0.3-0.1,0.5c0,0.2-0.1,0.3-0.2,0.4c-0.2,0.5-0.5,0.9-0.8,1.3
			c-0.3,0.4-0.7,0.8-1,1.1c-0.5,0.5-1.1,0.6-1.8,0.4c-0.1,0-0.1,0-0.2,0c0,0.1-0.1,0.1-0.1,0.2c0,0.1,0,0.1-0.1,0.2
			c-0.1,0.4-0.3,0.7-0.4,1.1c-0.1,0.4-0.3,0.7-0.4,1.1c-0.1,0.2-0.1,0.3-0.2,0.4S55,47,55,47.1c-0.4,0.6-0.8,0.9-1.2,0.9
			c-0.4,0-0.9-0.2-1.4-0.7c-0.1-0.2-0.2-0.3-0.4-0.5c-0.1-0.2-0.2-0.3-0.3-0.5c-0.3-0.5-0.5-0.9-0.7-1.4c-0.6-1.4-1-2.8-1.3-4.2
			s-0.5-2.9-0.7-4.3c-0.1-0.6-0.1-1.1-0.2-1.7s-0.1-1.1-0.1-1.7c0-0.2,0-0.4,0-0.5c0-0.2,0-0.4,0.1-0.5c0-0.1,0-0.1,0-0.2
			c0-0.1,0.1-0.1,0.1-0.2c0.1-0.2,0.2-0.3,0.3-0.4c0.1-0.1,0.3-0.2,0.4-0.2c0.1,0,0.3,0,0.5,0.1s0.3,0.2,0.4,0.4
			c0.1,0.1,0.2,0.3,0.2,0.4c0.1,0.2,0.1,0.3,0.1,0.5c0.1,0.4,0.2,0.8,0.2,1.3s0.1,0.9,0.2,1.3c0.2,1.1,0.4,2.3,0.5,3.4
			c0.2,1.1,0.3,2.2,0.5,3.3c0.1,0.6,0.2,1.1,0.4,1.7s0.3,1.1,0.4,1.7c0.1,0.2,0.1,0.4,0.2,0.6C53.5,45.7,53.7,45.9,53.8,46.1z
			 M56.1,39.4c0-0.1,0-0.1,0.1-0.2c0,0,0-0.1,0-0.1c0.1-0.6,0.2-1.2,0.3-1.8c0.1-0.6,0.2-1.2,0.2-1.8c0-0.3,0-0.6,0-1
			c0-0.3,0-0.7-0.1-1c0-0.1-0.1-0.2-0.1-0.4c0-0.1-0.1-0.3-0.3-0.4c-0.2,1.1-0.4,2.2-0.4,3.3C55.8,37.3,55.9,38.3,56.1,39.4z"/>
	</g>
	<path class="st4" d="M37.9,37.9c0,0,11.3,4.1,12.3-5.1"/>
	<path class="st5" d="M31,38.9c0,0,6.4,3.1,7-3.9"/>
</g>
<g id="Layer_4">
	<path class="st6" d="M68.7,37.1c-7.9-1.2-9,3.5-9,3.5s-2.2,3.9-3.2,1.9"/>
	<polygon class="st2" points="76.9,79.6 86.5,79.6 86.5,79.6 	"/>
	<rect x="0.5" y="59.5" class="st2" width="99.5" height="21.2"/>
	<g class="st3">
		<path class="st0" d="M4.9,60.1h2.2c0.4,0,0.8,0,1.1,0.1c0.3,0.1,0.6,0.2,0.8,0.4s0.4,0.4,0.5,0.6c0.1,0.3,0.2,0.6,0.2,0.9
			s-0.1,0.7-0.2,0.9c-0.1,0.3-0.3,0.5-0.5,0.6c-0.2,0.2-0.5,0.3-0.8,0.4S7.4,64.2,7,64.2H5.6v3.6H4.9V60.1z M5.6,63.6H7
			c0.6,0,1.1-0.1,1.4-0.4c0.3-0.2,0.5-0.6,0.5-1.1c0-0.5-0.2-0.8-0.5-1.1c-0.3-0.2-0.8-0.3-1.4-0.3H5.6V63.6z"/>
		<path class="st0" d="M16.1,68c-0.6,0-1.1-0.1-1.4-0.3S14,67.3,13.8,67c-0.2-0.3-0.4-0.6-0.5-1c-0.1-0.4-0.1-0.7-0.1-1v-4.9H14v4.8
			c0,0.3,0,0.6,0.1,0.9s0.2,0.6,0.4,0.8c0.2,0.2,0.4,0.4,0.7,0.6c0.3,0.1,0.6,0.2,1,0.2s0.7-0.1,1-0.2c0.3-0.1,0.5-0.3,0.7-0.6
			c0.2-0.2,0.3-0.5,0.4-0.8s0.1-0.6,0.1-0.9v-4.8H19v4.9c0,0.3,0,0.7-0.1,1c-0.1,0.4-0.2,0.7-0.5,1c-0.2,0.3-0.5,0.6-0.9,0.8
			C17.2,67.9,16.7,68,16.1,68z"/>
		<path class="st0" d="M23.8,67.8H23v-7.8h2.3c0.4,0,0.7,0,1.1,0.1c0.3,0.1,0.6,0.2,0.8,0.4s0.4,0.4,0.6,0.6c0.1,0.3,0.2,0.6,0.2,1
			c0,0.3-0.1,0.5-0.2,0.8c-0.1,0.2-0.2,0.4-0.4,0.6c-0.2,0.2-0.4,0.3-0.6,0.4c-0.2,0.1-0.5,0.2-0.8,0.2l2.3,3.7h-1l-2.2-3.6h-1.3
			V67.8z M23.8,63.5h1.4c0.6,0,1.1-0.1,1.5-0.3c0.3-0.2,0.5-0.6,0.5-1c0-0.3,0-0.5-0.1-0.6c-0.1-0.2-0.2-0.3-0.4-0.4
			c-0.2-0.1-0.4-0.2-0.6-0.2c-0.2-0.1-0.5-0.1-0.8-0.1h-1.4V63.5z"/>
		<path class="st0" d="M32.4,67.1h4.2v0.7h-5v-7.8h4.8v0.7h-4v2.7h3.8v0.7h-3.8V67.1z"/>
		<path class="st0" d="M42.5,66.8L42.5,66.8l2.6-6.8h0.8l-3,7.8h-0.8l-3-7.8H40L42.5,66.8z"/>
		<path class="st0" d="M56.5,63.9c0,0.6-0.1,1.1-0.3,1.6s-0.5,0.9-0.9,1.3c-0.4,0.4-0.8,0.6-1.3,0.9c-0.5,0.2-1,0.3-1.6,0.3
			s-1.1-0.1-1.6-0.3c-0.5-0.2-0.9-0.5-1.3-0.9c-0.4-0.4-0.6-0.8-0.9-1.3c-0.2-0.5-0.3-1-0.3-1.6c0-0.6,0.1-1.1,0.3-1.6
			c0.2-0.5,0.5-0.9,0.9-1.3c0.4-0.4,0.8-0.6,1.3-0.9s1-0.3,1.6-0.3s1.1,0.1,1.6,0.3c0.5,0.2,0.9,0.5,1.3,0.9
			c0.4,0.4,0.6,0.8,0.9,1.3C56.4,62.8,56.5,63.4,56.5,63.9z M55.7,64c0-0.5-0.1-0.9-0.2-1.3s-0.4-0.8-0.6-1.1
			c-0.3-0.3-0.6-0.6-1-0.7c-0.4-0.2-0.8-0.3-1.3-0.3s-0.9,0.1-1.3,0.3c-0.4,0.2-0.7,0.4-1,0.7c-0.3,0.3-0.5,0.7-0.6,1.1
			c-0.1,0.4-0.2,0.8-0.2,1.3s0.1,0.9,0.2,1.3c0.1,0.4,0.4,0.8,0.6,1.1c0.3,0.3,0.6,0.6,1,0.7c0.4,0.2,0.8,0.3,1.3,0.3
			s0.9-0.1,1.3-0.3c0.4-0.2,0.7-0.4,1-0.7s0.5-0.7,0.6-1.1S55.7,64.4,55.7,64z"/>
		<path class="st0" d="M61,67.1h3.6v0.7h-4.4v-7.8H61V67.1z"/>
		<path class="st0" d="M70.4,68c-0.6,0-1.1-0.1-1.4-0.3S68.3,67.3,68,67c-0.2-0.3-0.4-0.6-0.5-1c-0.1-0.4-0.1-0.7-0.1-1v-4.9h0.8
			v4.8c0,0.3,0,0.6,0.1,0.9s0.2,0.6,0.4,0.8c0.2,0.2,0.4,0.4,0.7,0.6c0.3,0.1,0.6,0.2,1,0.2c0.4,0,0.7-0.1,1-0.2
			c0.3-0.1,0.5-0.3,0.7-0.6c0.2-0.2,0.3-0.5,0.4-0.8s0.1-0.6,0.1-0.9v-4.8h0.8v4.9c0,0.3,0,0.7-0.1,1c-0.1,0.4-0.2,0.7-0.5,1
			c-0.2,0.3-0.5,0.6-0.9,0.8C71.4,67.9,70.9,68,70.4,68z"/>
		<path class="st0" d="M81.1,66.5L81.1,66.5l2.6-6.4H85v7.8h-0.8v-6.8h0l-2.8,6.8h-0.4l-2.8-6.8h0v6.8h-0.8v-7.8h1.2L81.1,66.5z"/>
		<path class="st0" d="M89.8,67.1H94v0.7h-5v-7.8h4.8v0.7h-4v2.7h3.8v0.7h-3.8V67.1z"/>
	</g>
</g>
</svg>
