<?xml version="1.0" encoding="utf-8"?>
<!-- Generator: Adobe Illustrator 22.0.1, SVG Export Plug-In . SVG Version: 6.00 Build 0)  -->
<svg version="1.1" id="Full_Logo" xmlns="http://www.w3.org/2000/svg" xmlns:xlink="http://www.w3.org/1999/xlink" x="0px" y="0px"
	 viewBox="0 0 91.1 39.9" style="enable-background:new 0 0 91.1 39.9;" xml:space="preserve">
<style type="text/css">
	.st0{fill:#FFFFFF;}
	.st1{fill:none;}
	.st2{enable-background:new    ;}
	.st3{fill:none;stroke:#FFFFFF;stroke-width:1.4;stroke-miterlimit:10;}
	.st4{fill:none;stroke:#FAFCFC;stroke-width:1.4;stroke-linecap:round;stroke-miterlimit:10;}
	.st5{fill:none;stroke:#FFFFFF;stroke-width:1.07;stroke-linecap:round;stroke-miterlimit:10;}
	.st6{stroke:#FFFFFF;stroke-miterlimit:10;}
</style>
<g id="Audio_JAck">
	<path id="audio_jack" class="st0" d="M73,7.5h-8.8c-0.1,0-0.1,0-0.1-0.1V6.3c0-0.1,0-0.1,0.1-0.1H73c0.1,0,0.1,0,0.1,0.1L73,7.5
		C73.1,7.5,73,7.5,73,7.5z"/>
	<path id="audio_jack_tip" class="st0" d="M69.8,8.2h-4.6c-0.1,0-0.1-0.1-0.1-0.1V5.8c0-0.1,0.1-0.1,0.1-0.1h4.6
		c0.1,0,0.1,0.1,0.1,0.1L69.8,8.2C69.9,8.1,69.9,8.2,69.8,8.2z"/>
	<circle id="Audio_jack_tip" class="st0" cx="73.3" cy="6.9" r="0.4"/>
</g>
<g id="PV">
	<rect id="PV_1_" x="30.5" y="0.7" class="st1" width="25.9" height="20.4"/>
	<g id="P" class="st2">
		<path class="st0" d="M33.9,8.6c0,0.3,0.1,0.6,0.1,0.9s0,0.6,0.1,0.9c0.1,1.2,0.2,2.3,0.3,3.5s0.2,2.3,0.3,3.5c0,0.2,0,0.3,0,0.5
			s0,0.3-0.1,0.5c-0.1,0.4-0.3,0.6-0.7,0.7S33.2,19,33,18.7c-0.1-0.1-0.1-0.2-0.2-0.4c-0.1-0.1-0.1-0.2-0.2-0.4
			c-0.2-0.6-0.3-1.1-0.5-1.7c-0.1-0.6-0.2-1.1-0.3-1.7c-0.2-1-0.3-2-0.5-3.1c-0.2-1-0.3-2-0.3-3c-0.1-0.8-0.1-1.5-0.1-2.3
			c0-0.7,0-1.5,0-2.2c0-0.3,0-0.6,0.1-0.9c0-0.3,0.1-0.6,0.1-0.8c0-0.1,0-0.2,0-0.3s0.1-0.2,0.1-0.2c0.1-0.2,0.2-0.3,0.3-0.4
			s0.3-0.2,0.5-0.2s0.3,0,0.5,0.1s0.3,0.2,0.4,0.3C33,1.7,33.1,1.8,33.2,2s0.1,0.4,0.1,0.6s0.1,0.4,0.1,0.6s0.1,0.4,0.1,0.7
			c0.1-0.1,0.1-0.1,0.2-0.2c0.1-0.1,0.1-0.1,0.1-0.2c0.2-0.3,0.4-0.6,0.7-0.9c0.2-0.3,0.5-0.5,0.8-0.8c0.4-0.3,0.8-0.6,1.2-0.8
			c0.4-0.2,0.9-0.4,1.4-0.4c0.5-0.1,1,0,1.4,0.2s0.8,0.5,1.1,0.9c0.4,0.5,0.6,1.1,0.8,1.7s0.2,1.3,0.1,1.9c-0.1,0.6-0.3,1.2-0.6,1.8
			c-0.3,0.6-0.7,1.1-1.3,1.4c-0.5,0.4-1,0.6-1.5,0.7s-1.1,0.1-1.7,0c-0.4,0-0.7-0.1-1.1-0.2C34.6,8.9,34.3,8.7,33.9,8.6
			C34,8.5,34,8.5,33.9,8.6C33.9,8.5,33.9,8.5,33.9,8.6z M34,6.3c0.2,0,0.3,0.1,0.4,0.1c0.1,0,0.2,0.1,0.2,0.1c0.1,0,0.1,0.1,0.2,0.2
			c0,0.1,0.1,0.2,0.1,0.3C35,7.1,35,7.2,35.1,7.2c0.1,0,0.1,0.1,0.2,0.1c0.2,0,0.3,0.1,0.5,0.1s0.4,0,0.5,0.1c0.8,0,1.5-0.3,2.1-0.9
			C38.6,6.3,38.8,6,39,5.7c0.1-0.3,0.2-0.7,0.2-1s0-0.7-0.1-1S38.9,3,38.6,2.8c-0.3-0.4-0.7-0.5-1.1-0.4c-0.2,0-0.4,0.1-0.6,0.2
			c-0.2,0.1-0.4,0.2-0.5,0.3c-0.7,0.4-1.2,0.9-1.6,1.5C34.5,4.9,34.2,5.6,34,6.3z"/>
	</g>
	<g id="V" class="st2">
		<path class="st0" d="M49.7,15.9c0.1-0.1,0.1-0.2,0.2-0.2c0.1,0,0.1-0.1,0.1-0.2c0.2-0.4,0.4-0.8,0.6-1.2c0.2-0.4,0.3-0.9,0.5-1.3
			c0-0.1,0-0.1,0-0.2s0-0.1,0-0.2c-0.3-0.5-0.5-1-0.6-1.5s-0.2-1-0.3-1.6c-0.2-1-0.3-2-0.2-3.1c0.1-1,0.2-2,0.5-3.1
			c0.1-0.2,0.1-0.4,0.2-0.6c0.1-0.2,0.2-0.4,0.3-0.6c0.1-0.1,0.2-0.2,0.3-0.3c0.1-0.1,0.2-0.2,0.3-0.3c0.3-0.2,0.5-0.3,0.8-0.2
			c0.3,0.1,0.5,0.2,0.8,0.5c0.2,0.3,0.4,0.6,0.5,0.9s0.2,0.7,0.2,1C54,4.3,54,4.9,54,5.5s-0.1,1.2-0.2,1.8c-0.1,0.7-0.2,1.3-0.4,2
			c-0.1,0.7-0.3,1.3-0.4,2c0,0.2,0,0.4,0.1,0.5s0.3,0.1,0.5,0.1c0.1,0,0.2-0.1,0.3-0.1s0.2-0.1,0.2-0.2c0.3-0.3,0.6-0.6,0.9-1
			s0.5-0.7,0.6-1.2V9.3c0.1-0.3,0.3-0.4,0.6-0.4c0.1,0,0.2,0.1,0.3,0.2s0.1,0.3,0.1,0.4c0,0.2-0.1,0.3-0.1,0.5s-0.1,0.3-0.2,0.4
			c-0.2,0.5-0.5,0.9-0.8,1.3s-0.7,0.8-1,1.1c-0.5,0.5-1.1,0.6-1.8,0.4c-0.1,0-0.1,0-0.2,0c0,0.1-0.1,0.1-0.1,0.2s0,0.1-0.1,0.2
			c-0.1,0.4-0.3,0.7-0.4,1.1c-0.1,0.4-0.3,0.7-0.4,1.1c-0.1,0.2-0.1,0.3-0.2,0.4s-0.4,0.6-0.4,0.7c-0.4,0.6-0.8,0.9-1.2,0.9
			s-0.9-0.2-1.4-0.7c-0.1-0.2-0.2-0.3-0.4-0.5c-0.1-0.2-0.2-0.3-0.3-0.5c-0.3-0.5-0.5-0.9-0.7-1.4c-0.6-1.4-1-2.8-1.3-4.2
			c-0.3-1.4-0.5-2.9-0.7-4.3c-0.1-0.6-0.1-1.1-0.2-1.7s-0.1-1.1-0.1-1.7c0-0.2,0-0.4,0-0.5c0-0.2,0-0.4,0.1-0.5c0-0.1,0-0.1,0-0.2
			s0.1-0.1,0.1-0.2C44.9,1.2,45,1.1,45.1,1s0.3-0.2,0.4-0.2c0.1,0,0.3,0,0.5,0.1s0.3,0.2,0.4,0.4c0.1,0.1,0.2,0.3,0.2,0.4
			c0.1,0.2,0.1,0.3,0.1,0.5c0.1,0.4,0.2,0.8,0.2,1.3s0.1,0.9,0.2,1.3c0.2,1.1,0.4,2.3,0.5,3.4c0.2,1.1,0.3,2.2,0.5,3.3
			c0.1,0.6,0.2,1.1,0.4,1.7s0.3,1.1,0.4,1.7c0.1,0.2,0.1,0.4,0.2,0.6C49.4,15.5,49.6,15.7,49.7,15.9z M52,9.2c0-0.1,0-0.1,0.1-0.2
			V8.9c0.1-0.6,0.2-1.2,0.3-1.8c0.1-0.6,0.2-1.2,0.2-1.8c0-0.3,0-0.6,0-1c0-0.3,0-0.7-0.1-1c0-0.1-0.1-0.2-0.1-0.4
			c0-0.1-0.1-0.3-0.3-0.4c-0.2,1.1-0.4,2.2-0.4,3.3C51.7,7.1,51.8,8.1,52,9.2z"/>
	</g>
	<path id="P2" class="st3" d="M33.8,7.7c0,0,11.3,4.1,12.3-5.1"/>
	<path id="P1" class="st4" d="M26.9,8.7c0,0,6.4,3.1,7-3.9"/>
</g>
<g id="PUREVOLUME">
	<path id="Wire" class="st5" d="M64.6,6.9c-7.9-1.2-9,3.5-9,3.5s-2.2,3.9-3.2,1.9"/>
	<rect id="Wire_1_" x="-3.6" y="29.3" class="st1" width="99.5" height="21.2"/>
	<g id="PUREVOLUME_TEXT" class="st2">
		<path class="st0" d="M0.8,29.9H3c0.4,0,0.8,0,1.1,0.1s0.6,0.2,0.8,0.4c0.2,0.2,0.4,0.4,0.5,0.6c0.1,0.3,0.2,0.6,0.2,0.9
			s-0.1,0.7-0.2,0.9c-0.1,0.3-0.3,0.5-0.5,0.6c-0.2,0.2-0.5,0.3-0.8,0.4S3.3,34,2.9,34H1.5v3.6H0.8L0.8,29.9L0.8,29.9z M1.5,33.4
			h1.4c0.6,0,1.1-0.1,1.4-0.4c0.3-0.2,0.5-0.6,0.5-1.1s-0.2-0.8-0.5-1.1c-0.3-0.2-0.8-0.3-1.4-0.3H1.5V33.4z"/>
		<path class="st0" d="M12,37.8c-0.6,0-1.1-0.1-1.4-0.3c-0.3-0.2-0.7-0.4-0.9-0.7c-0.2-0.3-0.4-0.6-0.5-1s-0.1-0.7-0.1-1v-4.9h0.8
			v4.8c0,0.3,0,0.6,0.1,0.9s0.2,0.6,0.4,0.8c0.2,0.2,0.4,0.4,0.7,0.6c0.3,0.1,0.6,0.2,1,0.2s0.7-0.1,1-0.2s0.5-0.3,0.7-0.6
			c0.2-0.2,0.3-0.5,0.4-0.8c0.1-0.3,0.1-0.6,0.1-0.9v-4.8h0.6v4.9c0,0.3,0,0.7-0.1,1c-0.1,0.4-0.2,0.7-0.5,1
			c-0.2,0.3-0.5,0.6-0.9,0.8C13.1,37.7,12.6,37.8,12,37.8z"/>
		<path class="st0" d="M19.7,37.6h-0.8v-7.8h2.3c0.4,0,0.7,0,1.1,0.1c0.3,0.1,0.6,0.2,0.8,0.4c0.2,0.2,0.4,0.4,0.6,0.6
			c0.1,0.3,0.2,0.6,0.2,1c0,0.3-0.1,0.5-0.2,0.8c-0.1,0.2-0.2,0.4-0.4,0.6s-0.4,0.3-0.6,0.4c-0.2,0.1-0.5,0.2-0.8,0.2l2.3,3.7h-1
			L21,34h-1.3L19.7,37.6L19.7,37.6z M19.7,33.3h1.4c0.6,0,1.1-0.1,1.5-0.3c0.3-0.2,0.5-0.6,0.5-1c0-0.3,0-0.5-0.1-0.6
			c-0.1-0.2-0.2-0.3-0.4-0.4s-0.4-0.2-0.6-0.2c-0.2-0.1-0.5-0.1-0.8-0.1h-1.4L19.7,33.3L19.7,33.3z"/>
		<path class="st0" d="M28.3,36.9h4.2v0.7h-5v-7.8h4.8v0.7h-4v2.7h3.8v0.7h-3.8V36.9z"/>
		<path class="st0" d="M38.4,36.6L38.4,36.6l2.6-6.8h0.8l-3,7.8H38l-3-7.8h0.9L38.4,36.6z"/>
		<path class="st0" d="M52.4,33.7c0,0.6-0.1,1.1-0.3,1.6s-0.5,0.9-0.9,1.3s-0.8,0.6-1.3,0.9c-0.5,0.2-1,0.3-1.6,0.3
			s-1.1-0.1-1.6-0.3c-0.5-0.2-0.9-0.5-1.3-0.9c-0.4-0.4-0.6-0.8-0.9-1.3c-0.2-0.5-0.3-1-0.3-1.6s0.1-1.1,0.3-1.6s0.5-0.9,0.9-1.3
			s0.8-0.6,1.3-0.9s1-0.3,1.6-0.3s1.1,0.1,1.6,0.3c0.5,0.2,0.9,0.5,1.3,0.9c0.4,0.4,0.6,0.8,0.9,1.3C52.3,32.6,52.4,33.2,52.4,33.7z
			 M51.6,33.8c0-0.5-0.1-0.9-0.2-1.3c-0.1-0.4-0.4-0.8-0.6-1.1c-0.3-0.3-0.6-0.6-1-0.7c-0.4-0.2-0.8-0.3-1.3-0.3s-0.9,0.1-1.3,0.3
			c-0.4,0.2-0.7,0.4-1,0.7c-0.3,0.3-0.5,0.7-0.6,1.1s-0.2,0.8-0.2,1.3s0.1,0.9,0.2,1.3c0.1,0.4,0.4,0.8,0.6,1.1
			c0.3,0.3,0.6,0.6,1,0.7c0.4,0.2,0.8,0.3,1.3,0.3s0.9-0.1,1.3-0.3c0.4-0.2,0.7-0.4,1-0.7c0.3-0.3,0.5-0.7,0.6-1.1
			S51.6,34.2,51.6,33.8z"/>
		<path class="st0" d="M56.9,36.9h3.6v0.7h-4.4v-7.8h0.8L56.9,36.9L56.9,36.9z"/>
		<path class="st0" d="M66.3,37.8c-0.6,0-1.1-0.1-1.4-0.3s-0.7-0.4-1-0.7c-0.2-0.3-0.4-0.6-0.5-1s-0.1-0.7-0.1-1v-4.9h0.8v4.8
			c0,0.3,0,0.6,0.1,0.9s0.2,0.6,0.4,0.8c0.2,0.2,0.4,0.4,0.7,0.6c0.3,0.1,0.6,0.2,1,0.2s0.7-0.1,1-0.2s0.5-0.3,0.7-0.6
			c0.2-0.2,0.3-0.5,0.4-0.8c0.1-0.3,0.1-0.6,0.1-0.9v-4.8h0.8v4.9c0,0.3,0,0.7-0.1,1c-0.1,0.4-0.2,0.7-0.5,1
			c-0.2,0.3-0.5,0.6-0.9,0.8C67.3,37.7,66.8,37.8,66.3,37.8z"/>
		<path class="st0" d="M77,36.3L77,36.3l2.6-6.4h1.3v7.8h-0.8v-6.8l0,0l-2.8,6.8h-0.4l-2.8-6.8l0,0v6.8h-0.8v-7.8h1.2L77,36.3z"/>
		<path class="st0" d="M85.7,36.9h4.2v0.7h-5v-7.8h4.8v0.7h-4v2.7h3.8v0.7h-3.8V36.9z"/>
	</g>
</g>
<polygon id="Cursive" class="st6" points="-4.9,-2.2 -4.9,-2.2 -4.9,-2.2 -4.9,-2.2 "/>
</svg>
