<?xml version="1.0" encoding="utf-8"?>
<!-- Generator: Adobe Illustrator 22.0.1, SVG Export Plug-In . SVG Version: 6.00 Build 0)  -->
<svg version="1.1" xmlns="http://www.w3.org/2000/svg" xmlns:xlink="http://www.w3.org/1999/xlink" x="0px" y="0px"
	 viewBox="0 0 50.1 23.2" style="enable-background:new 0 0 50.1 23.2;" xml:space="preserve">
<style type="text/css">
	.st0{fill:#FFFFFF;}
	.st1{stroke:#000000;stroke-width:0.5;stroke-miterlimit:10;}
	.st2{fill:none;}
	.st3{enable-background:new    ;}
	.st4{fill:none;stroke:#FFFFFF;stroke-width:1.4;stroke-miterlimit:10;}
	.st5{fill:none;stroke:#FAFCFC;stroke-width:1.4;stroke-linecap:round;stroke-miterlimit:10;}
	.st6{fill:none;stroke:#FFFFFF;stroke-width:1.07;stroke-linecap:round;stroke-miterlimit:10;}
</style>
<g id="Layer_2">
</g>
<g id="Logo">
	<g id="Audio">
		<path id="Audio_jack" class="st0" d="M47.7,8.3h-8.8c-0.1,0-0.1,0-0.1-0.1V7.1c0-0.1,0-0.1,0.1-0.1h8.8c0.1,0,0.1,0,0.1,0.1
			L47.7,8.3C47.8,8.3,47.7,8.3,47.7,8.3z"/>
		<path id="Audio_body" class="st0" d="M44.5,9h-4.6c-0.1,0-0.1-0.1-0.1-0.1V6.6c0-0.1,0.1-0.1,0.1-0.1h4.6c0.1,0,0.1,0.1,0.1,0.1
			L44.5,9C44.6,8.9,44.6,9,44.5,9z"/>
		<circle id="Audio_tip" class="st0" cx="48" cy="7.7" r="0.4"/>
		<rect id="Audio_dark" x="46.3" y="6.8" class="st1" width="0" height="2.1"/>
	</g>
	<g id="PV">
		<rect x="5.2" y="1.5" class="st2" width="25.9" height="20.4"/>
		<g id="P_1_" class="st3">
			<path class="st0" d="M8.6,9.4c0,0.3,0.1,0.6,0.1,0.9s0,0.6,0.1,0.9c0.1,1.2,0.2,2.3,0.3,3.5s0.2,2.3,0.3,3.5c0,0.2,0,0.3,0,0.5
				s0,0.3-0.1,0.5c-0.1,0.4-0.3,0.6-0.7,0.7s-0.7-0.1-0.9-0.4c-0.1-0.1-0.1-0.2-0.2-0.4c-0.1-0.1-0.1-0.2-0.2-0.4
				C7.1,18.1,7,17.6,6.8,17c-0.1-0.6-0.2-1.1-0.3-1.7c-0.2-1-0.3-2-0.5-3.1c-0.2-1-0.3-2-0.3-3C5.6,8.4,5.6,7.7,5.6,6.9
				c0-0.7,0-1.5,0-2.2c0-0.3,0-0.6,0.1-0.9c0-0.3,0.1-0.6,0.1-0.8c0-0.1,0-0.2,0-0.3s0.1-0.2,0.1-0.2C6,2.3,6.1,2.2,6.2,2.1
				s0.3-0.2,0.5-0.2S7,1.9,7.2,2s0.3,0.2,0.4,0.3c0.1,0.2,0.2,0.3,0.3,0.5S8,3.2,8,3.4S8.1,3.8,8.1,4s0.1,0.4,0.1,0.7
				c0.1-0.1,0.1-0.1,0.2-0.2s0.1-0.1,0.1-0.2C8.7,4,8.9,3.7,9.2,3.4C9.4,3.1,9.7,2.9,10,2.6c0.4-0.3,0.8-0.6,1.2-0.8
				c0.4-0.2,0.9-0.4,1.4-0.4c0.5-0.1,1,0,1.4,0.2s0.8,0.5,1.1,0.9c0.4,0.5,0.6,1.1,0.8,1.7s0.2,1.3,0.1,1.9
				c-0.1,0.6-0.3,1.2-0.6,1.8c-0.3,0.6-0.7,1.1-1.3,1.4c-0.5,0.4-1,0.6-1.5,0.7s-1.1,0.1-1.7,0c-0.4,0-0.7-0.1-1.1-0.2
				C9.3,9.7,9,9.5,8.6,9.4C8.7,9.3,8.7,9.3,8.6,9.4C8.6,9.3,8.6,9.3,8.6,9.4z M8.7,7.1c0.2,0,0.3,0.1,0.4,0.1c0.1,0,0.2,0.1,0.2,0.1
				c0.1,0,0.1,0.1,0.2,0.2c0,0.1,0.1,0.2,0.1,0.3C9.7,7.9,9.7,8,9.8,8S9.9,8.1,10,8.1c0.2,0,0.3,0.1,0.5,0.1s0.4,0,0.5,0.1
				c0.8,0,1.5-0.3,2.1-0.9c0.2-0.3,0.4-0.6,0.6-0.9c0.1-0.3,0.2-0.7,0.2-1s0-0.7-0.1-1s-0.2-0.7-0.5-0.9c-0.3-0.4-0.7-0.5-1.1-0.4
				c-0.2,0-0.4,0.1-0.6,0.2s-0.4,0.2-0.5,0.3c-0.7,0.4-1.2,0.9-1.6,1.5C9.2,5.7,8.9,6.4,8.7,7.1z"/>
		</g>
		<g id="V" class="st3">
			<path class="st0" d="M24.4,16.7c0.1-0.1,0.1-0.2,0.2-0.2s0.1-0.1,0.1-0.2c0.2-0.4,0.4-0.8,0.6-1.2s0.3-0.9,0.5-1.3
				c0-0.1,0-0.1,0-0.2s0-0.1,0-0.2c-0.3-0.5-0.5-1-0.6-1.5s-0.2-1-0.3-1.6c-0.2-1-0.3-2-0.2-3.1c0.1-1,0.2-2,0.5-3.1
				c0.1-0.2,0.1-0.4,0.2-0.6c0.1-0.2,0.2-0.4,0.3-0.6c0.1-0.1,0.2-0.2,0.3-0.3c0.1-0.1,0.2-0.2,0.3-0.3c0.3-0.2,0.5-0.3,0.8-0.2
				c0.3,0.1,0.5,0.2,0.8,0.5c0.2,0.3,0.4,0.6,0.5,0.9s0.2,0.7,0.2,1c0.1,0.6,0.1,1.2,0.1,1.8s-0.1,1.2-0.2,1.8
				c-0.1,0.7-0.2,1.3-0.4,2c-0.1,0.7-0.3,1.3-0.4,2c0,0.2,0,0.4,0.1,0.5s0.3,0.1,0.5,0.1c0.1,0,0.2-0.1,0.3-0.1s0.2-0.1,0.2-0.2
				c0.3-0.3,0.6-0.6,0.9-1c0.3-0.4,0.5-0.7,0.6-1.2v-0.1c0.1-0.3,0.3-0.4,0.6-0.4c0.1,0,0.2,0.1,0.3,0.2s0.1,0.3,0.1,0.4
				c0,0.2-0.1,0.3-0.1,0.5s-0.1,0.3-0.2,0.4c-0.2,0.5-0.5,0.9-0.8,1.3s-0.7,0.8-1,1.1c-0.5,0.5-1.1,0.6-1.8,0.4c-0.1,0-0.1,0-0.2,0
				c0,0.1-0.1,0.1-0.1,0.2s0,0.1-0.1,0.2c-0.1,0.4-0.3,0.7-0.4,1.1c-0.1,0.4-0.3,0.7-0.4,1.1c-0.1,0.2-0.1,0.3-0.2,0.4
				c-0.1,0.1-0.4,0.6-0.4,0.7c-0.4,0.6-0.8,0.9-1.2,0.9s-0.9-0.2-1.4-0.7c-0.1-0.2-0.2-0.3-0.4-0.5c-0.1-0.2-0.2-0.3-0.3-0.5
				c-0.3-0.5-0.5-0.9-0.7-1.4c-0.6-1.4-1-2.8-1.3-4.2C20,9.9,19.8,8.4,19.6,7c-0.1-0.6-0.1-1.1-0.2-1.7c-0.1-0.6-0.1-1.1-0.1-1.7
				c0-0.2,0-0.4,0-0.5c0-0.2,0-0.4,0.1-0.5c0-0.1,0-0.1,0-0.2s0.1-0.1,0.1-0.2c0.1-0.2,0.2-0.3,0.3-0.4s0.3-0.2,0.4-0.2
				s0.3,0,0.5,0.1s0.3,0.2,0.4,0.4c0.1,0.1,0.2,0.3,0.2,0.4c0.1,0.2,0.1,0.3,0.1,0.5c0.1,0.4,0.2,0.8,0.2,1.3s0.1,0.9,0.2,1.3
				C22,6.7,22.2,7.9,22.3,9c0.2,1.1,0.3,2.2,0.5,3.3c0.1,0.6,0.2,1.1,0.4,1.7s0.3,1.1,0.4,1.7c0.1,0.2,0.1,0.4,0.2,0.6
				C24.1,16.3,24.3,16.5,24.4,16.7z M26.7,10c0-0.1,0-0.1,0.1-0.2V9.7c0.1-0.6,0.2-1.2,0.3-1.8c0.1-0.6,0.2-1.2,0.2-1.8
				c0-0.3,0-0.6,0-1c0-0.3,0-0.7-0.1-1c0-0.1-0.1-0.2-0.1-0.4c0-0.1-0.1-0.3-0.3-0.4c-0.2,1.1-0.4,2.2-0.4,3.3
				C26.4,7.9,26.5,8.9,26.7,10z"/>
		</g>
		<path id="P2" class="st4" d="M8.5,8.5c0,0,11.3,4.1,12.3-5.1"/>
		<path id="P" class="st5" d="M1.6,9.5c0,0,6.4,3.1,7-3.9"/>
	</g>
	<g id="Wire">
		<path id="Wire_1_" class="st6" d="M39.3,7.7c-7.9-1.2-9,3.5-9,3.5s-2.2,3.9-3.2,1.9"/>
	</g>
</g>
</svg>
