<?xml version="1.0" encoding="utf-8"?>
<!-- Generator: Adobe Illustrator 19.0.0, SVG Export Plug-In . SVG Version: 6.00 Build 0)  -->
<svg version="1.1" id="Layer_1" xmlns="http://www.w3.org/2000/svg" xmlns:xlink="http://www.w3.org/1999/xlink" x="0px" y="0px"
	 viewBox="-225.6 376.4 50.1 23.2" style="enable-background:new -225.6 376.4 50.1 23.2;" xml:space="preserve">
<style type="text/css">
	.st0{fill:#FFFFFF;}
	.st1{stroke:#000000;stroke-width:0.5;stroke-miterlimit:10;}
	.st2{fill:none;}
	.st3{enable-background:new    ;}
	.st4{fill:none;stroke:#FFFFFF;stroke-width:1.4;stroke-miterlimit:10;}
	.st5{fill:none;stroke:#FAFCFC;stroke-width:1.4;stroke-linecap:round;stroke-miterlimit:10;}
	.st6{fill:none;stroke:#FFFFFF;stroke-width:1.07;stroke-linecap:round;stroke-miterlimit:10;}
</style>
<g id="Layer_1_1_">
	<path class="st0" d="M-177.9,384.7h-8.8c-0.1,0-0.1,0-0.1-0.1v-1.1c0-0.1,0-0.1,0.1-0.1h8.8c0.1,0,0.1,0,0.1,0.1L-177.9,384.7
		C-177.8,384.7-177.9,384.7-177.9,384.7z"/>
	<path class="st0" d="M-181.1,385.4h-4.6c-0.1,0-0.1-0.1-0.1-0.1V383c0-0.1,0.1-0.1,0.1-0.1h4.6c0.1,0,0.1,0.1,0.1,0.1L-181.1,385.4
		C-181,385.3-181,385.4-181.1,385.4z"/>
	<circle class="st0" cx="-177.6" cy="384.1" r="0.4"/>
	<rect x="-179.3" y="383.2" class="st1" width="0" height="2.1"/>
</g>
<g id="Layer_2_1_">
	<rect x="-220.4" y="377.9" class="st2" width="25.9" height="20.4"/>
	<g class="st3">
		<path class="st0" d="M-217,385.8c0,0.3,0.1,0.6,0.1,0.9c0,0.3,0,0.6,0.1,0.9c0.1,1.2,0.2,2.3,0.3,3.5c0.1,1.2,0.2,2.3,0.3,3.5
			c0,0.2,0,0.3,0,0.5s0,0.3-0.1,0.5c-0.1,0.4-0.3,0.6-0.7,0.7c-0.4,0.1-0.7-0.1-0.9-0.4c-0.1-0.1-0.1-0.2-0.2-0.4
			c-0.1-0.1-0.1-0.2-0.2-0.4c-0.2-0.6-0.3-1.1-0.5-1.7c-0.1-0.6-0.2-1.1-0.3-1.7c-0.2-1-0.3-2-0.5-3.1c-0.2-1-0.3-2-0.3-3
			c-0.1-0.8-0.1-1.5-0.1-2.3c0-0.7,0-1.5,0-2.2c0-0.3,0-0.6,0.1-0.9c0-0.3,0.1-0.6,0.1-0.8c0-0.1,0-0.2,0-0.3s0.1-0.2,0.1-0.2
			c0.1-0.2,0.2-0.3,0.3-0.4c0.1-0.1,0.3-0.2,0.5-0.2s0.3,0,0.5,0.1c0.2,0.1,0.3,0.2,0.4,0.3c0.1,0.2,0.2,0.3,0.3,0.5
			c0.1,0.2,0.1,0.4,0.1,0.6c0,0.2,0.1,0.4,0.1,0.6c0,0.2,0.1,0.4,0.1,0.7c0.1-0.1,0.1-0.1,0.2-0.2s0.1-0.1,0.1-0.2
			c0.2-0.3,0.4-0.6,0.7-0.9c0.2-0.3,0.5-0.5,0.8-0.8c0.4-0.3,0.8-0.6,1.2-0.8c0.4-0.2,0.9-0.4,1.4-0.4c0.5-0.1,1,0,1.4,0.2
			c0.4,0.2,0.8,0.5,1.1,0.9c0.4,0.5,0.6,1.1,0.8,1.7s0.2,1.3,0.1,1.9c-0.1,0.6-0.3,1.2-0.6,1.8c-0.3,0.6-0.7,1.1-1.3,1.4
			c-0.5,0.4-1,0.6-1.5,0.7s-1.1,0.1-1.7,0c-0.4,0-0.7-0.1-1.1-0.2C-216.3,386.1-216.6,385.9-217,385.8
			C-216.9,385.7-216.9,385.7-217,385.8C-217,385.7-217,385.7-217,385.8z M-216.9,383.5c0.2,0,0.3,0.1,0.4,0.1c0.1,0,0.2,0.1,0.2,0.1
			c0.1,0,0.1,0.1,0.2,0.2c0,0.1,0.1,0.2,0.1,0.3c0.1,0.1,0.1,0.2,0.2,0.2s0.1,0.1,0.2,0.1c0.2,0,0.3,0.1,0.5,0.1
			c0.2,0,0.4,0,0.5,0.1c0.8,0,1.5-0.3,2.1-0.9c0.2-0.3,0.4-0.6,0.6-0.9c0.1-0.3,0.2-0.7,0.2-1s0-0.7-0.1-1c-0.1-0.3-0.2-0.7-0.5-0.9
			c-0.3-0.4-0.7-0.5-1.1-0.4c-0.2,0-0.4,0.1-0.6,0.2s-0.4,0.2-0.5,0.3c-0.7,0.4-1.2,0.9-1.6,1.5
			C-216.4,382.1-216.7,382.8-216.9,383.5z"/>
	</g>
	<g class="st3">
		<path class="st0" d="M-201.2,393.1c0.1-0.1,0.1-0.2,0.2-0.2s0.1-0.1,0.1-0.2c0.2-0.4,0.4-0.8,0.6-1.2s0.3-0.9,0.5-1.3
			c0-0.1,0-0.1,0-0.2s0-0.1,0-0.2c-0.3-0.5-0.5-1-0.6-1.5c-0.1-0.5-0.2-1-0.3-1.6c-0.2-1-0.3-2-0.2-3.1c0.1-1,0.2-2,0.5-3.1
			c0.1-0.2,0.1-0.4,0.2-0.6c0.1-0.2,0.2-0.4,0.3-0.6c0.1-0.1,0.2-0.2,0.3-0.3c0.1-0.1,0.2-0.2,0.3-0.3c0.3-0.2,0.5-0.3,0.8-0.2
			c0.3,0.1,0.5,0.2,0.8,0.5c0.2,0.3,0.4,0.6,0.5,0.9c0.1,0.3,0.2,0.7,0.2,1c0.1,0.6,0.1,1.2,0.1,1.8s-0.1,1.2-0.2,1.8
			c-0.1,0.7-0.2,1.3-0.4,2c-0.1,0.7-0.3,1.3-0.4,2c0,0.2,0,0.4,0.1,0.5c0.1,0.1,0.3,0.1,0.5,0.1c0.1,0,0.2-0.1,0.3-0.1
			c0.1,0,0.2-0.1,0.2-0.2c0.3-0.3,0.6-0.6,0.9-1c0.3-0.4,0.5-0.7,0.6-1.2v-0.1c0.1-0.3,0.3-0.4,0.6-0.4c0.1,0,0.2,0.1,0.3,0.2
			c0.1,0.1,0.1,0.3,0.1,0.4c0,0.2-0.1,0.3-0.1,0.5s-0.1,0.3-0.2,0.4c-0.2,0.5-0.5,0.9-0.8,1.3c-0.3,0.4-0.7,0.8-1,1.1
			c-0.5,0.5-1.1,0.6-1.8,0.4c-0.1,0-0.1,0-0.2,0c0,0.1-0.1,0.1-0.1,0.2s0,0.1-0.1,0.2c-0.1,0.4-0.3,0.7-0.4,1.1
			c-0.1,0.4-0.3,0.7-0.4,1.1c-0.1,0.2-0.1,0.3-0.2,0.4c-0.1,0.1-0.4,0.6-0.4,0.7c-0.4,0.6-0.8,0.9-1.2,0.9c-0.4,0-0.9-0.2-1.4-0.7
			c-0.1-0.2-0.2-0.3-0.4-0.5c-0.1-0.2-0.2-0.3-0.3-0.5c-0.3-0.5-0.5-0.9-0.7-1.4c-0.6-1.4-1-2.8-1.3-4.2c-0.3-1.4-0.5-2.9-0.7-4.3
			c-0.1-0.6-0.1-1.1-0.2-1.7c-0.1-0.6-0.1-1.1-0.1-1.7c0-0.2,0-0.4,0-0.5c0-0.2,0-0.4,0.1-0.5c0-0.1,0-0.1,0-0.2
			c0-0.1,0.1-0.1,0.1-0.2c0.1-0.2,0.2-0.3,0.3-0.4c0.1-0.1,0.3-0.2,0.4-0.2s0.3,0,0.5,0.1s0.3,0.2,0.4,0.4c0.1,0.1,0.2,0.3,0.2,0.4
			c0.1,0.2,0.1,0.3,0.1,0.5c0.1,0.4,0.2,0.8,0.2,1.3s0.1,0.9,0.2,1.3c0.2,1.1,0.4,2.3,0.5,3.4c0.2,1.1,0.3,2.2,0.5,3.3
			c0.1,0.6,0.2,1.1,0.4,1.7c0.2,0.6,0.3,1.1,0.4,1.7c0.1,0.2,0.1,0.4,0.2,0.6C-201.5,392.7-201.3,392.9-201.2,393.1z M-198.9,386.4
			c0-0.1,0-0.1,0.1-0.2v-0.1c0.1-0.6,0.2-1.2,0.3-1.8c0.1-0.6,0.2-1.2,0.2-1.8c0-0.3,0-0.6,0-1c0-0.3,0-0.7-0.1-1
			c0-0.1-0.1-0.2-0.1-0.4c0-0.1-0.1-0.3-0.3-0.4c-0.2,1.1-0.4,2.2-0.4,3.3C-199.2,384.3-199.1,385.3-198.9,386.4z"/>
	</g>
	<path class="st4" d="M-217.1,384.9c0,0,11.3,4.1,12.3-5.1"/>
	<path class="st5" d="M-224,385.9c0,0,6.4,3.1,7-3.9"/>
</g>
<g id="Layer_4">
	<path class="st6" d="M-186.3,384.1c-7.9-1.2-9,3.5-9,3.5s-2.2,3.9-3.2,1.9"/>
</g>
</svg>
