<?xml version="1.0" encoding="utf-8"?>
<!-- Generator: Adobe Illustrator 19.0.0, SVG Export Plug-In . SVG Version: 6.00 Build 0)  -->
<svg version="1.1" id="Layer_1" xmlns="http://www.w3.org/2000/svg" xmlns:xlink="http://www.w3.org/1999/xlink" x="0px" y="0px"
	 viewBox="-250.9 377.2 91.1 39.9" style="enable-background:new -250.9 377.2 91.1 39.9;" xml:space="preserve">
<style type="text/css">
	.st0{fill:#FFFFFF;}
	.st1{fill:none;}
	.st2{enable-background:new    ;}
	.st3{fill:none;stroke:#FFFFFF;stroke-width:1.4;stroke-miterlimit:10;}
	.st4{fill:none;stroke:#FAFCFC;stroke-width:1.4;stroke-linecap:round;stroke-miterlimit:10;}
	.st5{fill:none;stroke:#FFFFFF;stroke-width:1.07;stroke-linecap:round;stroke-miterlimit:10;}
</style>
<g id="Layer_1_1_">
	<path class="st0" d="M-177.9,384.7h-8.8c-0.1,0-0.1,0-0.1-0.1v-1.1c0-0.1,0-0.1,0.1-0.1h8.8c0.1,0,0.1,0,0.1,0.1L-177.9,384.7
		C-177.8,384.7-177.9,384.7-177.9,384.7z"/>
	<path class="st0" d="M-181.1,385.4h-4.6c-0.1,0-0.1-0.1-0.1-0.1V383c0-0.1,0.1-0.1,0.1-0.1h4.6c0.1,0,0.1,0.1,0.1,0.1L-181.1,385.4
		C-181,385.3-181,385.4-181.1,385.4z"/>
	<circle class="st0" cx="-177.6" cy="384.1" r="0.4"/>
</g>
<g id="Layer_2_1_">
	<rect x="-220.4" y="377.9" class="st1" width="25.9" height="20.4"/>
	<g class="st2">
		<path class="st0" d="M-217,385.8c0,0.3,0.1,0.6,0.1,0.9s0,0.6,0.1,0.9c0.1,1.2,0.2,2.3,0.3,3.5c0.1,1.2,0.2,2.3,0.3,3.5
			c0,0.2,0,0.3,0,0.5c0,0.2,0,0.3-0.1,0.5c-0.1,0.4-0.3,0.6-0.7,0.7c-0.4,0.1-0.7-0.1-0.9-0.4c-0.1-0.1-0.1-0.2-0.2-0.4
			c-0.1-0.1-0.1-0.2-0.2-0.4c-0.2-0.6-0.3-1.1-0.5-1.7c-0.1-0.6-0.2-1.1-0.3-1.7c-0.2-1-0.3-2-0.5-3.1c-0.2-1-0.3-2-0.3-3
			c-0.1-0.8-0.1-1.5-0.1-2.3c0-0.7,0-1.5,0-2.2c0-0.3,0-0.6,0.1-0.9c0-0.3,0.1-0.6,0.1-0.8c0-0.1,0-0.2,0-0.3s0.1-0.2,0.1-0.2
			c0.1-0.2,0.2-0.3,0.3-0.4c0.1-0.1,0.3-0.2,0.5-0.2c0.2,0,0.3,0,0.5,0.1c0.2,0.1,0.3,0.2,0.4,0.3c0.1,0.2,0.2,0.3,0.3,0.5
			c0.1,0.2,0.1,0.4,0.1,0.6c0,0.2,0.1,0.4,0.1,0.6c0,0.2,0.1,0.4,0.1,0.7c0.1-0.1,0.1-0.1,0.2-0.2c0.1-0.1,0.1-0.1,0.1-0.2
			c0.2-0.3,0.4-0.6,0.7-0.9c0.2-0.3,0.5-0.5,0.8-0.8c0.4-0.3,0.8-0.6,1.2-0.8c0.4-0.2,0.9-0.4,1.4-0.4c0.5-0.1,1,0,1.4,0.2
			c0.4,0.2,0.8,0.5,1.1,0.9c0.4,0.5,0.6,1.1,0.8,1.7c0.2,0.6,0.2,1.3,0.1,1.9c-0.1,0.6-0.3,1.2-0.6,1.8c-0.3,0.6-0.7,1.1-1.3,1.4
			c-0.5,0.4-1,0.6-1.5,0.7c-0.5,0.1-1.1,0.1-1.7,0c-0.4,0-0.7-0.1-1.1-0.2C-216.3,386.1-216.6,385.9-217,385.8
			C-216.9,385.7-216.9,385.7-217,385.8C-217,385.7-217,385.7-217,385.8z M-216.9,383.5c0.2,0,0.3,0.1,0.4,0.1c0.1,0,0.2,0.1,0.2,0.1
			c0.1,0,0.1,0.1,0.2,0.2c0,0.1,0.1,0.2,0.1,0.3c0.1,0.1,0.1,0.2,0.2,0.2c0.1,0,0.1,0.1,0.2,0.1c0.2,0,0.3,0.1,0.5,0.1
			s0.4,0,0.5,0.1c0.8,0,1.5-0.3,2.1-0.9c0.2-0.3,0.4-0.6,0.6-0.9c0.1-0.3,0.2-0.7,0.2-1c0-0.3,0-0.7-0.1-1c-0.1-0.3-0.2-0.7-0.5-0.9
			c-0.3-0.4-0.7-0.5-1.1-0.4c-0.2,0-0.4,0.1-0.6,0.2c-0.2,0.1-0.4,0.2-0.5,0.3c-0.7,0.4-1.2,0.9-1.6,1.5
			C-216.4,382.1-216.7,382.8-216.9,383.5z"/>
	</g>
	<g class="st2">
		<path class="st0" d="M-201.2,393.1c0.1-0.1,0.1-0.2,0.2-0.2c0.1,0,0.1-0.1,0.1-0.2c0.2-0.4,0.4-0.8,0.6-1.2
			c0.2-0.4,0.3-0.9,0.5-1.3c0-0.1,0-0.1,0-0.2s0-0.1,0-0.2c-0.3-0.5-0.5-1-0.6-1.5c-0.1-0.5-0.2-1-0.3-1.6c-0.2-1-0.3-2-0.2-3.1
			c0.1-1,0.2-2,0.5-3.1c0.1-0.2,0.1-0.4,0.2-0.6c0.1-0.2,0.2-0.4,0.3-0.6c0.1-0.1,0.2-0.2,0.3-0.3c0.1-0.1,0.2-0.2,0.3-0.3
			c0.3-0.2,0.5-0.3,0.8-0.2c0.3,0.1,0.5,0.2,0.8,0.5c0.2,0.3,0.4,0.6,0.5,0.9c0.1,0.3,0.2,0.7,0.2,1c0.1,0.6,0.1,1.2,0.1,1.8
			s-0.1,1.2-0.2,1.8c-0.1,0.7-0.2,1.3-0.4,2c-0.1,0.7-0.3,1.3-0.4,2c0,0.2,0,0.4,0.1,0.5c0.1,0.1,0.3,0.1,0.5,0.1
			c0.1,0,0.2-0.1,0.3-0.1c0.1,0,0.2-0.1,0.2-0.2c0.3-0.3,0.6-0.6,0.9-1s0.5-0.7,0.6-1.2v-0.1c0.1-0.3,0.3-0.4,0.6-0.4
			c0.1,0,0.2,0.1,0.3,0.2c0.1,0.1,0.1,0.3,0.1,0.4c0,0.2-0.1,0.3-0.1,0.5c0,0.2-0.1,0.3-0.2,0.4c-0.2,0.5-0.5,0.9-0.8,1.3
			s-0.7,0.8-1,1.1c-0.5,0.5-1.1,0.6-1.8,0.4c-0.1,0-0.1,0-0.2,0c0,0.1-0.1,0.1-0.1,0.2c0,0.1,0,0.1-0.1,0.2
			c-0.1,0.4-0.3,0.7-0.4,1.1c-0.1,0.4-0.3,0.7-0.4,1.1c-0.1,0.2-0.1,0.3-0.2,0.4s-0.4,0.6-0.4,0.7c-0.4,0.6-0.8,0.9-1.2,0.9
			c-0.4,0-0.9-0.2-1.4-0.7c-0.1-0.2-0.2-0.3-0.4-0.5c-0.1-0.2-0.2-0.3-0.3-0.5c-0.3-0.5-0.5-0.9-0.7-1.4c-0.6-1.4-1-2.8-1.3-4.2
			c-0.3-1.4-0.5-2.9-0.7-4.3c-0.1-0.6-0.1-1.1-0.2-1.7s-0.1-1.1-0.1-1.7c0-0.2,0-0.4,0-0.5c0-0.2,0-0.4,0.1-0.5c0-0.1,0-0.1,0-0.2
			c0-0.1,0.1-0.1,0.1-0.2c0.1-0.2,0.2-0.3,0.3-0.4c0.1-0.1,0.3-0.2,0.4-0.2c0.1,0,0.3,0,0.5,0.1c0.2,0.1,0.3,0.2,0.4,0.4
			c0.1,0.1,0.2,0.3,0.2,0.4c0.1,0.2,0.1,0.3,0.1,0.5c0.1,0.4,0.2,0.8,0.2,1.3s0.1,0.9,0.2,1.3c0.2,1.1,0.4,2.3,0.5,3.4
			c0.2,1.1,0.3,2.2,0.5,3.3c0.1,0.6,0.2,1.1,0.4,1.7c0.2,0.6,0.3,1.1,0.4,1.7c0.1,0.2,0.1,0.4,0.2,0.6
			C-201.5,392.7-201.3,392.9-201.2,393.1z M-198.9,386.4c0-0.1,0-0.1,0.1-0.2v-0.1c0.1-0.6,0.2-1.2,0.3-1.8c0.1-0.6,0.2-1.2,0.2-1.8
			c0-0.3,0-0.6,0-1c0-0.3,0-0.7-0.1-1c0-0.1-0.1-0.2-0.1-0.4c0-0.1-0.1-0.3-0.3-0.4c-0.2,1.1-0.4,2.2-0.4,3.3
			C-199.2,384.3-199.1,385.3-198.9,386.4z"/>
	</g>
	<path class="st3" d="M-217.1,384.9c0,0,11.3,4.1,12.3-5.1"/>
	<path class="st4" d="M-224,385.9c0,0,6.4,3.1,7-3.9"/>
</g>
<g id="Layer_4">
	<path class="st5" d="M-186.3,384.1c-7.9-1.2-9,3.5-9,3.5s-2.2,3.9-3.2,1.9"/>
	<rect x="-254.5" y="406.5" class="st1" width="99.5" height="21.2"/>
	<g class="st2">
		<path class="st0" d="M-250.1,407.1h2.2c0.4,0,0.8,0,1.1,0.1c0.3,0.1,0.6,0.2,0.8,0.4c0.2,0.2,0.4,0.4,0.5,0.6
			c0.1,0.3,0.2,0.6,0.2,0.9c0,0.3-0.1,0.7-0.2,0.9c-0.1,0.3-0.3,0.5-0.5,0.6c-0.2,0.2-0.5,0.3-0.8,0.4c-0.3,0.1-0.8,0.2-1.2,0.2
			h-1.4v3.6h-0.7V407.1z M-249.4,410.6h1.4c0.6,0,1.1-0.1,1.4-0.4c0.3-0.2,0.5-0.6,0.5-1.1s-0.2-0.8-0.5-1.1
			c-0.3-0.2-0.8-0.3-1.4-0.3h-1.4V410.6z"/>
		<path class="st0" d="M-238.9,415c-0.6,0-1.1-0.1-1.4-0.3c-0.3-0.2-0.7-0.4-0.9-0.7c-0.2-0.3-0.4-0.6-0.5-1c-0.1-0.4-0.1-0.7-0.1-1
			v-4.9h0.8v4.8c0,0.3,0,0.6,0.1,0.9c0.1,0.3,0.2,0.6,0.4,0.8c0.2,0.2,0.4,0.4,0.7,0.6c0.3,0.1,0.6,0.2,1,0.2c0.4,0,0.7-0.1,1-0.2
			c0.3-0.1,0.5-0.3,0.7-0.6c0.2-0.2,0.3-0.5,0.4-0.8c0.1-0.3,0.1-0.6,0.1-0.9v-4.8h0.6v4.9c0,0.3,0,0.7-0.1,1
			c-0.1,0.4-0.2,0.7-0.5,1c-0.2,0.3-0.5,0.6-0.9,0.8C-237.8,414.9-238.3,415-238.9,415z"/>
		<path class="st0" d="M-231.2,414.8h-0.8V407h2.3c0.4,0,0.7,0,1.1,0.1c0.3,0.1,0.6,0.2,0.8,0.4c0.2,0.2,0.4,0.4,0.6,0.6
			c0.1,0.3,0.2,0.6,0.2,1c0,0.3-0.1,0.5-0.2,0.8c-0.1,0.2-0.2,0.4-0.4,0.6c-0.2,0.2-0.4,0.3-0.6,0.4c-0.2,0.1-0.5,0.2-0.8,0.2
			l2.3,3.7h-1l-2.2-3.6h-1.3V414.8z M-231.2,410.5h1.4c0.6,0,1.1-0.1,1.5-0.3c0.3-0.2,0.5-0.6,0.5-1c0-0.3,0-0.5-0.1-0.6
			c-0.1-0.2-0.2-0.3-0.4-0.4c-0.2-0.1-0.4-0.2-0.6-0.2c-0.2-0.1-0.5-0.1-0.8-0.1h-1.4v2.6H-231.2z"/>
		<path class="st0" d="M-222.6,414.1h4.2v0.7h-5V407h4.8v0.7h-4v2.7h3.8v0.7h-3.8V414.1z"/>
		<path class="st0" d="M-212.5,413.8L-212.5,413.8l2.6-6.8h0.8l-3,7.8h-0.8l-3-7.8h0.9L-212.5,413.8z"/>
		<path class="st0" d="M-198.5,410.9c0,0.6-0.1,1.1-0.3,1.6c-0.2,0.5-0.5,0.9-0.9,1.3c-0.4,0.4-0.8,0.6-1.3,0.9
			c-0.5,0.2-1,0.3-1.6,0.3c-0.6,0-1.1-0.1-1.6-0.3c-0.5-0.2-0.9-0.5-1.3-0.9c-0.4-0.4-0.6-0.8-0.9-1.3c-0.2-0.5-0.3-1-0.3-1.6
			c0-0.6,0.1-1.1,0.3-1.6s0.5-0.9,0.9-1.3c0.4-0.4,0.8-0.6,1.3-0.9c0.5-0.3,1-0.3,1.6-0.3c0.6,0,1.1,0.1,1.6,0.3
			c0.5,0.2,0.9,0.5,1.3,0.9c0.4,0.4,0.6,0.8,0.9,1.3C-198.6,409.8-198.5,410.4-198.5,410.9z M-199.3,411c0-0.5-0.1-0.9-0.2-1.3
			c-0.1-0.4-0.4-0.8-0.6-1.1c-0.3-0.3-0.6-0.6-1-0.7c-0.4-0.2-0.8-0.3-1.3-0.3s-0.9,0.1-1.3,0.3c-0.4,0.2-0.7,0.4-1,0.7
			c-0.3,0.3-0.5,0.7-0.6,1.1c-0.1,0.4-0.2,0.8-0.2,1.3s0.1,0.9,0.2,1.3c0.1,0.4,0.4,0.8,0.6,1.1c0.3,0.3,0.6,0.6,1,0.7
			c0.4,0.2,0.8,0.3,1.3,0.3s0.9-0.1,1.3-0.3c0.4-0.2,0.7-0.4,1-0.7c0.3-0.3,0.5-0.7,0.6-1.1C-199.4,411.9-199.3,411.4-199.3,411z"/>
		<path class="st0" d="M-194,414.1h3.6v0.7h-4.4V407h0.8V414.1z"/>
		<path class="st0" d="M-184.6,415c-0.6,0-1.1-0.1-1.4-0.3s-0.7-0.4-1-0.7c-0.2-0.3-0.4-0.6-0.5-1c-0.1-0.4-0.1-0.7-0.1-1v-4.9h0.8
			v4.8c0,0.3,0,0.6,0.1,0.9c0.1,0.3,0.2,0.6,0.4,0.8c0.2,0.2,0.4,0.4,0.7,0.6c0.3,0.1,0.6,0.2,1,0.2c0.4,0,0.7-0.1,1-0.2
			s0.5-0.3,0.7-0.6c0.2-0.2,0.3-0.5,0.4-0.8c0.1-0.3,0.1-0.6,0.1-0.9v-4.8h0.8v4.9c0,0.3,0,0.7-0.1,1c-0.1,0.4-0.2,0.7-0.5,1
			c-0.2,0.3-0.5,0.6-0.9,0.8C-183.6,414.9-184.1,415-184.6,415z"/>
		<path class="st0" d="M-173.9,413.5L-173.9,413.5l2.6-6.4h1.3v7.8h-0.8v-6.8l0,0l-2.8,6.8h-0.4l-2.8-6.8l0,0v6.8h-0.8v-7.8h1.2
			L-173.9,413.5z"/>
		<path class="st0" d="M-165.2,414.1h4.2v0.7h-5V407h4.8v0.7h-4v2.7h3.8v0.7h-3.8V414.1z"/>
	</g>
</g>
</svg>
